<svg width="51" height="51" viewBox="0 0 51 51" fill="none" xmlns="http://www.w3.org/2000/svg">
<path d="M25.5 0.0357666C11.6933 0.0357666 0.5 11.229 0.5 25.0358C0.5 36.8406 8.68462 46.7281 19.6875 49.3492C19.1183 49.2137 18.5538 49.0617 18 48.8886V43.1608C18 43.1608 17.0625 43.4733 15.8125 43.4733C12.3154 43.4733 10.8625 40.3531 10.5 38.7858C10.2798 37.831 9.70481 36.9261 9.0875 36.3733C8.35 35.7156 8.00481 35.7136 8 35.4886C7.99038 35.0165 8.63269 35.0358 8.9375 35.0358C10.5 35.0358 11.6846 36.6983 12.2346 37.5579C13.5971 39.68 15.0596 40.0358 15.8125 40.0358C16.75 40.0358 17.5596 39.8954 18.1173 39.6261C18.375 37.8108 19.1827 36.1935 20.5 35.0358C14.6375 33.8637 10.5 30.5012 10.5 25.0358C10.5 22.2204 11.6298 19.6329 13.5125 17.5435C13.3202 16.9983 13 15.8954 13 14.0983C13 12.9108 13.0827 11.4531 13.625 10.0358C13.625 10.0358 17.1904 10.0608 20.5529 13.2454C22.1048 12.7935 23.7654 12.5358 25.5 12.5358C27.2346 12.5358 28.8952 12.7935 30.4471 13.2454C33.8096 10.0608 37.375 10.0358 37.375 10.0358C37.9202 11.4531 38 12.9108 38 14.0983C38 16.0358 37.7423 17.1656 37.5846 17.6531C39.4096 19.7233 40.5 22.2704 40.5 25.0358C40.5 30.5012 36.3625 33.8637 30.5 35.0358C32.0654 36.4108 33 38.4137 33 40.6608V48.8886C32.4462 49.0627 31.8827 49.2137 31.3125 49.3492C42.3154 46.7281 50.5 36.8406 50.5 25.0358C50.5 11.229 39.3067 0.0357666 25.5 0.0357666ZM27.2433 49.9685C26.6673 50.0088 26.0865 50.0358 25.5 50.0358C26.0865 50.0358 26.6663 50.0079 27.2433 49.9685ZM25.5 50.0358C24.9135 50.0358 24.3327 50.0088 23.7567 49.9685C24.3337 50.0079 24.9135 50.0358 25.5 50.0358ZM23.3731 49.9396C22.2029 49.8406 21.0548 49.6617 19.9365 49.4069C21.0558 49.6608 22.2029 49.8406 23.3731 49.9396Z" fill="black"/>
</svg>
