<svg width="51" height="51" viewBox="0 0 51 51" fill="none" xmlns="http://www.w3.org/2000/svg">
<path d="M45.9282 20.9556H44.2501V20.8691H25.5001V29.2025H37.274C35.5563 34.0535 30.9407 37.5358 25.5001 37.5358C18.597 37.5358 13.0001 31.9389 13.0001 25.0358C13.0001 18.1327 18.597 12.5358 25.5001 12.5358C28.6865 12.5358 31.5855 13.7379 33.7928 15.7014L39.6855 9.8087C35.9647 6.341 30.9876 4.20245 25.5001 4.20245C13.9949 4.20245 4.66675 13.5306 4.66675 25.0358C4.66675 36.541 13.9949 45.8691 25.5001 45.8691C37.0053 45.8691 46.3334 36.541 46.3334 25.0358C46.3334 23.6389 46.1897 22.2754 45.9282 20.9556Z" fill="#FBC02D"/>
<path d="M7.06885 15.3389L13.9136 20.3587C15.7657 15.7733 20.2511 12.5358 25.5001 12.5358C28.6866 12.5358 31.5855 13.7379 33.7928 15.7014L39.6855 9.8087C35.9647 6.341 30.9876 4.20245 25.5001 4.20245C17.498 4.20245 10.5584 8.72016 7.06885 15.3389Z" fill="#E53935"/>
<path d="M25.5 45.8691C30.8812 45.8691 35.7708 43.8097 39.4677 40.4607L33.0198 35.0045C30.9281 36.5889 28.3281 37.5357 25.5 37.5357C20.0812 37.5357 15.4802 34.0805 13.7469 29.2587L6.95312 34.493C10.401 41.2399 17.4031 45.8691 25.5 45.8691Z" fill="#4CAF50"/>
<path d="M45.9281 20.9555L45.9115 20.8691H44.25H25.5V29.2024H37.274C36.449 31.5326 34.95 33.542 33.0167 35.0055L33.0198 35.0035L39.4677 40.4597C39.0115 40.8743 46.3333 35.4524 46.3333 25.0357C46.3333 23.6389 46.1896 22.2753 45.9281 20.9555Z" fill="#1565C0"/>
</svg>
